{"asset":{"generator":"Khronos glTF Blender I/O v1.7.33","version":"2.0"},"scene":0,"scenes":[{"nodes":[0]}],"nodes":[{"mesh":0,"rotation":[0.7071067811865476,0,0,0.7071067811865476],"translation":[0,0,0.030510280281305313]}],"materials":[{"alphaCutoff":0.5,"alphaMode":"MASK","doubleSided":true,"name":"fern_02","normalTexture":{"index":0},"pbrMetallicRoughness":{"baseColorTexture":{"index":1},"metallicFactor":0,"metallicRoughnessTexture":{"index":2}}}],"meshes":[{"name":"Plane.024","primitives":[{"attributes":{"POSITION":1,"NORMAL":2,"TEXCOORD_0":3},"indices":0,"material":0}]}],"textures":[{"sampler":0,"source":0},{"sampler":0,"source":1},{"sampler":0,"source":2}],"images":[{"mimeType":"image/jpeg","name":"fern_02_nor_gl","uri":"textures/fern_02_nor_gl_1k.jpg"},{"mimeType":"image/jpeg","name":"fern_02_diff-fern_02_alpha","uri":"textures/fern_02_diff_1k.jpg"},{"mimeType":"image/jpeg","name":"fern_02_rough","uri":"textures/fern_02_arm_1k.jpg"}],"accessors":[{"bufferView":0,"componentType":5123,"count":7152,"type":"SCALAR"},{"bufferView":1,"componentType":5126,"count":1660,"max":[0.4616048336029053,0.39718443155288696,0.4718152582645416],"min":[-0.5281425714492798,-0.030510280281305313,-0.421874463558197],"type":"VEC3"},{"bufferView":2,"componentType":5126,"count":1660,"type":"VEC3"},{"bufferView":3,"componentType":5126,"count":1660,"type":"VEC2"}],"bufferViews":[{"buffer":0,"byteLength":14304,"byteOffset":0},{"buffer":0,"byteLength":19920,"byteOffset":14304},{"buffer":0,"byteLength":19920,"byteOffset":34224},{"buffer":0,"byteLength":13280,"byteOffset":54144}],"samplers":[{"magFilter":9729,"minFilter":9987}],"buffers":[{"uri":"mesh.bin","byteLength":67424}]}