# Generated convex collision proxy; local Z-up metres
v 0.731103147 0.358766141 0.458261829
v 0.704664685 0.4453076 0.478401592
v 0.479095108 0.52097879 0.113692308
v 0.646510753 0.49372098 0.4477694
v 0.439575557 0.510686738 0.0664786008
v 0.673463011 0.461150803 0.55620374
v 0.377913679 0.524546794 0.0398667601
v 0.734669916 0.134739464 0.440052025
v 0.734425655 0.0961916908 0.421299516
v 0.730771127 0.0763816246 0.438987775
v 0.184952684 -0.0990295025 0.0178068408
v 0.368014074 0.581062358 0.148230361
v 0.717407825 0.042034488 0.429009422
v 0.329403854 -0.323443646 0.0934715279
v -0.457078863 -0.539626549 0.802406723
v 0.42424936 -0.37633473 0.237194094
v 0.387261248 -0.373246234 0.156346375
v 0.396750499 -0.390037914 0.190242266
v 0.318641104 -0.343220215 0.0976724529
v 0.0014729695 -0.657340743 0.390742017
v -0.46752614 -0.502245454 0.854210777
v -0.349272217 0.678424731 0.218377114
v -0.56026258 0.65055672 0.27267025
v -0.445941282 0.316716757 0
v -0.463399555 0.6675105 0.36516033
v -0.0568763713 -0.673571867 0.528405053
v -0.631803811 0.573808213 0.0740663713
v -0.376946967 -0.145727098 1.08646349
v -0.626066932 0.476974085 0.0139855205
v -0.643071343 0.494968875 0.0316256102
v 0.0438542141 -0.674007124 0.443803962
v -0.656231711 0.57888455 0.0997343046
v -0.656076074 0.463007129 0.0310822183
v -0.678708364 0.544317189 0.118786448
v -0.102453901 0.409501172 1.1938485
v -0.105991673 0.304324592 1.18125231
v -0.574558222 0.614923569 0.483487111
v -0.639539521 0.593362544 0.3830365
v -0.158103672 0.402054406 1.21804251
v -0.15819791 0.382886821 1.22120086
v -0.112019163 -0.678424731 0.458712432
v -0.22529255 -0.661634944 0.48149536
v -0.637310425 -0.286524481 0.137063328
v -0.70752271 -0.226087345 0.268354357
v -0.526389638 -0.510997107 0.775946157
v -0.582318178 -0.352674231 0.150120151
v -0.405328856 0.222188453 1.13965778
v -0.659353591 -0.315645862 0.194836132
v -0.390420606 0.171987572 1.1658847
v -0.734669916 -0.135572324 0.319831968
v -0.674701728 -0.202175134 0.54897773
v -0.523532313 -0.491101041 0.816623703
f 28 26 36
f 28 36 40
f 24 7 11
f 24 29 7
f 13 36 26
f 37 38 47
f 35 40 36
f 35 36 6
f 12 7 22
f 1 6 8
f 14 11 7
f 51 50 45
f 51 45 52
f 51 38 50
f 51 47 38
f 21 26 28
f 21 28 52
f 49 52 28
f 49 51 52
f 49 47 51
f 49 28 40
f 23 32 38
f 23 38 37
f 23 37 25
f 23 25 22
f 23 22 32
f 27 22 7
f 27 32 22
f 27 7 29
f 34 50 38
f 34 38 32
f 34 33 50
f 34 32 33
f 43 46 48
f 43 33 29
f 43 29 24
f 43 11 46
f 43 24 11
f 44 45 50
f 44 48 45
f 44 43 48
f 44 50 33
f 44 33 43
f 31 13 26
f 10 36 13
f 10 8 6
f 10 6 36
f 42 48 46
f 42 45 48
f 39 37 47
f 39 49 40
f 39 47 49
f 39 40 35
f 39 25 37
f 39 35 25
f 3 7 12
f 19 46 11
f 19 11 14
f 19 20 46
f 17 13 18
f 17 19 14
f 17 20 19
f 17 18 31
f 17 31 20
f 15 52 45
f 15 21 52
f 15 45 42
f 15 26 21
f 15 42 26
f 30 33 32
f 30 32 27
f 30 29 33
f 30 27 29
f 16 18 13
f 16 31 18
f 16 13 31
f 41 46 20
f 41 42 46
f 41 20 31
f 41 31 26
f 41 26 42
f 4 3 12
f 4 12 22
f 4 22 25
f 4 35 6
f 4 25 35
f 5 14 7
f 5 7 3
f 5 17 14
f 2 1 3
f 2 3 4
f 2 6 1
f 2 4 6
f 9 13 17
f 9 17 5
f 9 10 13
f 9 8 10
f 9 5 3
f 9 1 8
f 9 3 1
