{"asset":{"generator":"Khronos glTF Blender I/O v4.4.56","version":"2.0"},"scene":0,"scenes":[{"nodes":[0]}],"nodes":[{"mesh":0,"rotation":[0.7071067811865476,0,0,0.7071067811865476],"translation":[0,0,0.007504553068429232]}],"materials":[{"alphaMode":"BLEND","doubleSided":true,"name":"grass_medium_01","normalTexture":{"index":0},"pbrMetallicRoughness":{"baseColorTexture":{"index":1},"metallicFactor":0,"metallicRoughnessTexture":{"index":2}},"extensions":{"KHR_materials_specular":{"specularColorFactor":[1,1,1]}},"extras":{"rayrai":{"foliage":{"type":"leaf","twoSidedLighting":true,"transmission":0.4,"transmissionColor":[0.65,0.85,0.28]}}}}],"meshes":[{"name":"Plane.051","primitives":[{"attributes":{"POSITION":1,"NORMAL":2,"TEXCOORD_0":3},"indices":0,"material":0}]}],"textures":[{"sampler":0,"source":0},{"sampler":0,"source":1},{"sampler":0,"source":2}],"images":[{"mimeType":"image/jpeg","name":"grass_medium_01_nor_gl","uri":"textures/grass_medium_01_nor_gl_1k.jpg"},{"mimeType":"image/jpeg","name":"grass_medium_01_diff-grass_medium_01_alpha","uri":"textures/grass_medium_01_diff_1k.jpg"},{"mimeType":"image/jpeg","name":"grass_medium_01_rough","uri":"textures/grass_medium_01_arm_1k.jpg"}],"accessors":[{"bufferView":0,"componentType":5123,"count":19266,"type":"SCALAR"},{"bufferView":1,"componentType":5126,"count":7044,"max":[0.1642143875360489,0.13918423652648926,0.16885031759738922],"min":[-0.15279462933540344,-0.007504553068429232,-0.15770849585533142],"type":"VEC3"},{"bufferView":2,"componentType":5126,"count":7044,"type":"VEC3"},{"bufferView":3,"componentType":5126,"count":7044,"type":"VEC2"}],"bufferViews":[{"buffer":0,"byteLength":38532,"byteOffset":0,"target":34963},{"buffer":0,"byteLength":84528,"byteOffset":38532,"target":34962},{"buffer":0,"byteLength":84528,"byteOffset":123060,"target":34962},{"buffer":0,"byteLength":56352,"byteOffset":207588,"target":34962}],"samplers":[{"magFilter":9729,"minFilter":9987}],"buffers":[{"uri":"mesh.bin","byteLength":263940}]}