{"asset":{"generator":"Khronos glTF Blender I/O v4.4.56","version":"2.0"},"scene":0,"scenes":[{"nodes":[0]}],"nodes":[{"mesh":0,"rotation":[0.7071067811865476,0,0,0.7071067811865476],"translation":[0,0,0.0023396017495542765]}],"materials":[{"doubleSided":true,"name":"grass_bermuda_01","normalTexture":{"index":0},"pbrMetallicRoughness":{"baseColorTexture":{"index":1},"metallicFactor":0,"metallicRoughnessTexture":{"index":2}},"extensions":{"KHR_materials_specular":{"specularColorFactor":[1,1,1]}},"extras":{"rayrai":{"foliage":{"type":"leaf","twoSidedLighting":true,"transmission":0.4,"transmissionColor":[0.65,0.85,0.28]}}}}],"meshes":[{"name":"Plane.026","primitives":[{"attributes":{"POSITION":1,"NORMAL":2,"TEXCOORD_0":3},"indices":0,"material":0}]}],"textures":[{"sampler":0,"source":0},{"sampler":0,"source":1},{"sampler":0,"source":2}],"images":[{"mimeType":"image/jpeg","name":"grass_bermuda_01_nor_gl","uri":"textures/grass_bermuda_01_nor_gl_1k.jpg"},{"mimeType":"image/jpeg","name":"grass_bermuda_01_diff","uri":"textures/grass_bermuda_01_diff_1k.jpg"},{"mimeType":"image/jpeg","name":"grass_bermuda_01_rough","uri":"textures/grass_bermuda_01_arm_1k.jpg"}],"accessors":[{"bufferView":0,"componentType":5123,"count":441,"type":"SCALAR"},{"bufferView":1,"componentType":5126,"count":125,"max":[0.019270125776529312,0.14854684472084045,0.033722005784511566],"min":[-0.04856491461396217,-0.0023396017495542765,-0.011859199963510036],"type":"VEC3"},{"bufferView":2,"componentType":5126,"count":125,"type":"VEC3"},{"bufferView":3,"componentType":5126,"count":125,"type":"VEC2"}],"bufferViews":[{"buffer":0,"byteLength":882,"byteOffset":0,"target":34963},{"buffer":0,"byteLength":1500,"byteOffset":884,"target":34962},{"buffer":0,"byteLength":1500,"byteOffset":2384,"target":34962},{"buffer":0,"byteLength":1000,"byteOffset":3884,"target":34962}],"samplers":[{"magFilter":9729,"minFilter":9987}],"buffers":[{"uri":"mesh.bin","byteLength":4884}]}