{"asset":{"generator":"Khronos glTF Blender I/O v4.4.56","version":"2.0"},"scene":0,"scenes":[{"nodes":[0]}],"nodes":[{"mesh":0,"rotation":[0.7071067811865476,0,0,0.7071067811865476],"translation":[0,0,0.0034316747914999723]}],"materials":[{"alphaMode":"BLEND","doubleSided":true,"name":"grass_medium_02","normalTexture":{"index":0},"pbrMetallicRoughness":{"baseColorTexture":{"index":1},"metallicFactor":0,"metallicRoughnessTexture":{"index":2}},"extensions":{"KHR_materials_specular":{"specularColorFactor":[1,1,1]}},"extras":{"rayrai":{"foliage":{"type":"leaf","twoSidedLighting":true,"transmission":0.4,"transmissionColor":[0.65,0.85,0.28]}}}}],"meshes":[{"name":"Plane.005","primitives":[{"attributes":{"POSITION":1,"NORMAL":2,"TEXCOORD_0":3},"indices":0,"material":0}]}],"textures":[{"sampler":0,"source":0},{"sampler":0,"source":1},{"sampler":0,"source":2}],"images":[{"mimeType":"image/jpeg","name":"grass_medium_02_nor_gl","uri":"textures/grass_medium_02_nor_gl_1k.jpg"},{"mimeType":"image/jpeg","name":"grass_medium_02_diff-grass_medium_02_alpha","uri":"textures/grass_medium_02_diff_1k.jpg"},{"mimeType":"image/jpeg","name":"grass_medium_02_rough","uri":"textures/grass_medium_02_arm_1k.jpg"}],"accessors":[{"bufferView":0,"componentType":5123,"count":4992,"type":"SCALAR"},{"bufferView":1,"componentType":5126,"count":1542,"max":[0.14228084683418274,0.3998044431209564,0.25784459710121155],"min":[-0.21328848600387573,-0.0034316747914999723,-0.1754019558429718],"type":"VEC3"},{"bufferView":2,"componentType":5126,"count":1542,"type":"VEC3"},{"bufferView":3,"componentType":5126,"count":1542,"type":"VEC2"}],"bufferViews":[{"buffer":0,"byteLength":9984,"byteOffset":0,"target":34963},{"buffer":0,"byteLength":18504,"byteOffset":9984,"target":34962},{"buffer":0,"byteLength":18504,"byteOffset":28488,"target":34962},{"buffer":0,"byteLength":12336,"byteOffset":46992,"target":34962}],"samplers":[{"magFilter":9729,"minFilter":9987}],"buffers":[{"uri":"mesh.bin","byteLength":59328}]}