{"asset":{"generator":"Khronos glTF Blender I/O v3.5.30","version":"2.0"},"extensionsUsed":["KHR_materials_specular","KHR_materials_ior"],"scene":0,"scenes":[{"nodes":[0]}],"nodes":[{"mesh":0,"rotation":[0.7071067811865476,0,0,0.7071067811865476],"translation":[0,0,0.007901787757873535]}],"materials":[{"doubleSided":true,"name":"fir_sapling_branches","normalTexture":{"index":0},"pbrMetallicRoughness":{"baseColorTexture":{"index":1},"metallicFactor":0,"metallicRoughnessTexture":{"index":2}}},{"doubleSided":true,"extensions":{"KHR_materials_specular":{"specularColorFactor":[1,1,1]},"KHR_materials_ior":{"ior":1.4500000476837158}},"name":"fir_sapling_twigs","normalTexture":{"index":3},"pbrMetallicRoughness":{"baseColorTexture":{"index":4},"metallicFactor":0,"metallicRoughnessTexture":{"index":5}},"extras":{"rayrai":{"foliage":{"type":"leaf","twoSidedLighting":true,"transmission":0.4,"transmissionColor":[0.65,0.85,0.28]}}},"alphaMode":"OPAQUE"}],"meshes":[{"name":"Cylinder","primitives":[{"attributes":{"POSITION":1,"TEXCOORD_0":2,"NORMAL":3},"indices":0,"material":0},{"attributes":{"POSITION":5,"TEXCOORD_0":6,"NORMAL":7},"indices":4,"material":1}]}],"textures":[{"sampler":0,"source":0},{"sampler":0,"source":1},{"sampler":0,"source":2},{"sampler":0,"source":3},{"sampler":0,"source":4},{"sampler":0,"source":5}],"images":[{"mimeType":"image/jpeg","name":"fir_sapling_branches_nor_gl","uri":"textures/fir_sapling_branches_nor_gl_1k.jpg"},{"mimeType":"image/jpeg","name":"fir_sapling_branches_diff","uri":"textures/fir_sapling_branches_diff_1k.jpg"},{"mimeType":"image/jpeg","name":"fir_sapling_branches_rough","uri":"textures/fir_sapling_branches_arm_1k.jpg"},{"mimeType":"image/jpeg","name":"fir_sapling_twigs_nor_gl","uri":"textures/fir_sapling_twigs_nor_gl_1k.jpg"},{"mimeType":"image/jpeg","name":"fir_sapling_twigs_diff","uri":"textures/fir_sapling_twigs_diff_1k.jpg"},{"mimeType":"image/jpeg","name":"fir_sapling_twigs_rough","uri":"textures/fir_sapling_twigs_arm_1k.jpg"}],"accessors":[{"bufferView":0,"componentType":5123,"count":1638,"type":"SCALAR"},{"bufferView":1,"componentType":5126,"count":388,"max":[0.2531963288784027,1.1080386638641357,0.26755601167678833],"min":[-0.2750617563724518,-0.007901787757873535,-0.2920974791049957],"type":"VEC3"},{"bufferView":2,"componentType":5126,"count":388,"type":"VEC2"},{"bufferView":3,"componentType":5126,"count":388,"type":"VEC3"},{"bufferView":4,"componentType":5125,"count":470568,"type":"SCALAR"},{"bufferView":5,"componentType":5126,"count":186918,"max":[0.42418965697288513,1.2928361892700195,0.396030455827713],"min":[-0.43695688247680664,0.02356576919555664,-0.42620566487312317],"type":"VEC3"},{"bufferView":6,"componentType":5126,"count":186918,"type":"VEC2"},{"bufferView":7,"componentType":5126,"count":186918,"type":"VEC3"}],"bufferViews":[{"buffer":0,"byteLength":3276,"byteOffset":0,"target":34963},{"buffer":0,"byteLength":4656,"byteOffset":3276,"target":34962},{"buffer":0,"byteLength":3104,"byteOffset":7932,"target":34962},{"buffer":0,"byteLength":4656,"byteOffset":11036,"target":34962},{"buffer":0,"byteLength":1882272,"byteOffset":15692,"target":34963},{"buffer":0,"byteLength":2243016,"byteOffset":1897964,"target":34962},{"buffer":0,"byteLength":1495344,"byteOffset":4140980,"target":34962},{"buffer":0,"byteLength":2243016,"byteOffset":5636324,"target":34962}],"samplers":[{"magFilter":9729,"minFilter":9987}],"buffers":[{"uri":"mesh.bin","byteLength":7879340}]}