# Generated convex collision proxy; local Z-up metres
v -0.658877818 0.365768953 0.103647829
v -0.590444743 0.546587421 0.217449171
v 0.460933371 0.551736453 0.23248979
v 0.418818368 0.563626938 0.288779865
v 0.466598639 0.528384853 0.307244545
v 0.578883401 -0.569688732 0.109965767
v 0.646144087 -0.559562544 0.16045403
v 0.652613757 -0.543019176 0.130598516
v -0.563133405 0.575413895 0.173721023
v -0.455122309 0.622739234 0.160702065
v 0.406272777 0.600551126 0.161736508
v -0.701700375 -0.120005302 0.631619069
v -0.677737544 -0.0278856149 0.0362603473
v -0.708985717 -0.592757197 0.1148452
v -0.709643681 -0.52216982 0.0847610529
v -0.671764547 -0.651724061 0.12191647
v 0.630906503 -0.0326685904 0.710128097
v 0.604516057 0.0654936565 0.682580035
v 0.64322644 -0.0252082918 0.696282075
v -0.679558839 -0.0603075367 0.661797658
v -0.654273681 -0.068916696 0.69203256
v -0.360645964 0.642273588 0.111559627
v -0.266780951 0.694413262 0.130776009
v -0.219010784 0.628301858 0.0769751133
v -0.212417962 0.697492964 0.113735032
v -0.55742072 -0.70219427 0.159784423
v -0.160647573 0.70219427 0.108954016
v 0.427652417 0.547508433 0.139427141
v 0.674168696 -0.5400554 0.180066826
v 0.667590828 -0.506192077 0.133295138
v 0.682111921 -0.511649683 0.18845004
v 0.537978583 -0.594618503 0.122883119
v -0.700729973 -0.359128694 0.508638309
v -0.633962135 -0.397029282 0.533504521
v 0.346730949 -0.326324529 0
v -0.711985398 -0.622098377 0.171450442
v -0.711681976 -0.616099176 0.226875829
v -0.701034682 -0.65485267 0.20089652
v 0.239788713 0.678396997 0.119761041
v -0.496090644 0.385670569 0.490542812
v -0.516708671 -0.694851207 0.135132645
v -0.689401973 -0.654068153 0.143568799
v -0.639102674 -0.685498024 0.175396182
v -0.376249441 -0.142226144 0.733493463
v 0.67191014 -0.499424822 0.240276039
v -0.703504885 -0.336040707 0.0492975399
v -0.509658362 -0.0284222735 0.734989157
v 0.711985398 -0.385663646 0.318276399
v -0.694783583 0.250537965 0.118382521
v -0.384599376 -0.00853703719 0.742647115
v 0.676076896 -0.0960469892 0.667574143
v 0.692772659 -0.13142239 0.628965115
f 5 4 18
f 5 3 4
f 24 35 13
f 24 27 39
f 24 39 35
f 52 48 3
f 52 3 5
f 52 5 51
f 52 51 34
f 44 34 51
f 19 5 18
f 19 51 5
f 46 13 35
f 6 41 35
f 6 32 41
f 28 3 48
f 28 48 30
f 28 35 39
f 28 30 35
f 23 39 27
f 23 4 39
f 17 44 51
f 17 51 19
f 17 50 44
f 17 18 50
f 17 19 18
f 15 46 35
f 11 3 28
f 11 28 39
f 11 4 3
f 11 39 4
f 31 30 48
f 31 48 29
f 31 29 30
f 8 30 29
f 8 35 30
f 8 6 35
f 45 52 34
f 45 48 52
f 45 29 48
f 25 23 27
f 25 22 23
f 25 27 24
f 25 24 22
f 1 24 13
f 1 22 24
f 26 41 32
f 26 34 43
f 26 45 34
f 38 34 33
f 38 43 34
f 38 36 42
f 38 42 43
f 16 35 41
f 16 15 35
f 16 41 26
f 16 43 42
f 16 26 43
f 40 4 23
f 40 50 18
f 40 18 4
f 9 22 1
f 9 1 2
f 49 13 46
f 49 1 13
f 49 46 15
f 49 2 1
f 49 15 36
f 49 36 12
f 7 26 32
f 7 8 29
f 7 29 45
f 7 45 26
f 7 32 6
f 7 6 8
f 37 36 38
f 37 38 33
f 37 12 36
f 37 33 12
f 14 16 42
f 14 15 16
f 14 42 36
f 14 36 15
f 47 50 40
f 47 44 50
f 20 40 2
f 20 2 49
f 20 49 12
f 10 9 2
f 10 40 23
f 10 2 40
f 10 23 22
f 10 22 9
f 21 47 40
f 21 40 20
f 21 20 12
f 21 44 47
f 21 34 44
f 21 33 34
f 21 12 33
