{"asset":{"generator":"Khronos glTF Blender I/O v4.5.47","version":"2.0"},"scene":0,"scenes":[{"nodes":[0]}],"nodes":[{"mesh":0,"rotation":[0.7071067811865476,0,0,0.7071067811865476],"translation":[0,0,2.3949423848534934e-05]}],"materials":[{"alphaMode":"BLEND","doubleSided":true,"name":"periwinkle_plant","normalTexture":{"index":0},"pbrMetallicRoughness":{"baseColorTexture":{"index":1},"metallicFactor":0,"metallicRoughnessTexture":{"index":2}}}],"meshes":[{"name":"tree","primitives":[{"attributes":{"POSITION":1,"NORMAL":2,"TEXCOORD_0":3,"TEXCOORD_1":4,"COLOR_0":5,"COLOR_1":6},"indices":0,"material":0}]}],"textures":[{"sampler":0,"source":0},{"sampler":0,"source":1},{"sampler":0,"source":2}],"images":[{"mimeType":"image/jpeg","name":"periwinkle_plant_nor_gl","uri":"textures/periwinkle_plant_nor_gl_1k.jpg"},{"mimeType":"image/jpeg","name":"periwinkle_plant_diff-periwinkle_plant_opacity","uri":"textures/periwinkle_plant_diff_1k.jpg"},{"mimeType":"image/jpeg","name":"periwinkle_plant_rough","uri":"textures/periwinkle_plant_arm_1k.jpg"}],"accessors":[{"bufferView":0,"componentType":5123,"count":12324,"type":"SCALAR"},{"bufferView":1,"componentType":5126,"count":4042,"max":[0.0737600028514862,0.26494383811950684,0.09701307117938995],"min":[-0.08205762505531311,-2.3949423848534934e-05,-0.0872248187661171],"type":"VEC3"},{"bufferView":2,"componentType":5126,"count":4042,"type":"VEC3"},{"bufferView":3,"componentType":5126,"count":4042,"type":"VEC2"},{"bufferView":4,"componentType":5126,"count":4042,"type":"VEC2"},{"bufferView":5,"componentType":5121,"count":4042,"normalized":true,"type":"VEC4"},{"bufferView":6,"componentType":5123,"count":4042,"normalized":true,"type":"VEC4"}],"bufferViews":[{"buffer":0,"byteLength":24648,"byteOffset":0,"target":34963},{"buffer":0,"byteLength":48504,"byteOffset":24648,"target":34962},{"buffer":0,"byteLength":48504,"byteOffset":73152,"target":34962},{"buffer":0,"byteLength":32336,"byteOffset":121656,"target":34962},{"buffer":0,"byteLength":32336,"byteOffset":153992,"target":34962},{"buffer":0,"byteLength":16168,"byteOffset":186328,"target":34962},{"buffer":0,"byteLength":32336,"byteOffset":202496,"target":34962}],"samplers":[{"magFilter":9729,"minFilter":9987}],"buffers":[{"uri":"mesh.bin","byteLength":234832}]}