# Generated convex collision proxy; local Z-up metres
v -0.148281261 -0.591916392 0.299364025
v 0.326808821 0.775985799 0.343727716
v 0.343419228 0.779453055 0.312892311
v 0.34597718 0.77952968 0.271569175
v 0.319210958 0.78926236 0.227653966
v 0.376383818 0.69961517 0.244513482
v 0.353609589 0.738224596 0.196852704
v -0.426258743 0.0820974835 0.52339081
v -0.489166589 0.0623323152 0.450685112
v -0.415986637 0.0106055882 0.507732214
v 0.470230898 -0.390074578 0.622610274
v 0.461248416 -0.263104436 0.643790225
v -0.0533630065 0.118669638 0
v 0.149259041 0.627712242 0.724840047
v 0.155167855 0.642212621 0.721087072
v -0.0230316156 0.571681832 0.645789988
v 0.127880794 0.651439052 0.714952062
v 0.129432732 0.664909265 0.685468268
v 0.601334575 -0.356311976 0.354497297
v 0.610608939 -0.346866077 0.322701483
v 0.577888897 -0.437391243 0.260267556
v 0.599000337 -0.403875295 0.287796609
v 0.526876366 -0.0477391909 0.115865564
v 0.505557031 -0.0394029269 0.0951298561
v 0.283950665 0.791932272 0.249259731
v 0.334298851 0.613509532 0.106100049
v 0.149002677 0.607673252 0.0610249556
v 0.218835991 0.679470452 0.0723321402
v 0.278487121 0.791529696 0.232177823
v 0.280450763 0.786877792 0.202513538
v 0.0610978706 -0.784706734 0.165980415
v -0.0393262072 -0.71514633 0.16435302
v 0.413598337 -0.716910293 0.276832873
v 0.393892144 -0.733356715 0.259776445
v 0.379349549 -0.738562803 0.235383878
v 0.127231827 -0.791932272 0.162371361
v 0.0556117512 -0.770654604 0.139993904
v 0.187323554 -0.773270693 0.114595695
v 0.165524051 -0.742221588 0.0832762949
v 0.132209874 -0.726856142 0.0777161478
v 0.300549738 -0.760493054 0.161344054
v 0.22803569 -0.75268471 0.0992820854
v -0.610608939 -0.0707653016 0.278693138
v -0.597710576 -0.100214427 0.147424427
v -0.585418095 -0.116501118 0.12732338
v -0.454829227 -0.142887461 0.0567479444
v 0.322923874 -0.0349389162 0.0147463818
v 0.377501017 -0.549393139 0.613309272
v 0.23460599 -0.654032612 0.551809498
v 0.247213207 -0.673433466 0.533979245
v 0.340432696 -0.659172414 0.557557323
v 0.343361194 -0.645485813 0.573028207
f 48 12 14
f 48 14 8
f 48 52 11
f 48 11 12
f 19 20 3
f 19 3 12
f 19 12 11
f 19 11 52
f 13 46 27
f 17 18 16
f 17 8 14
f 17 16 8
f 9 16 43
f 9 43 8
f 9 8 16
f 40 46 13
f 40 47 39
f 40 13 47
f 42 39 47
f 22 20 19
f 22 33 21
f 22 19 52
f 22 52 33
f 10 8 43
f 10 43 1
f 15 17 14
f 15 14 12
f 15 12 3
f 15 18 17
f 5 25 3
f 28 7 26
f 28 26 47
f 28 47 13
f 28 13 27
f 6 3 20
f 23 26 7
f 23 20 22
f 23 6 20
f 23 7 6
f 23 22 21
f 51 33 52
f 41 42 21
f 2 15 3
f 2 18 15
f 2 3 25
f 2 25 18
f 4 5 3
f 4 7 5
f 4 3 6
f 4 6 7
f 30 5 7
f 30 7 28
f 30 28 27
f 24 47 26
f 24 26 23
f 24 42 47
f 24 21 42
f 24 23 21
f 50 36 51
f 50 51 52
f 45 46 32
f 45 27 46
f 45 1 43
f 45 32 1
f 37 40 39
f 37 46 40
f 37 32 46
f 35 21 33
f 35 41 21
f 35 36 41
f 38 41 36
f 38 42 41
f 38 39 42
f 38 37 39
f 38 36 37
f 29 25 5
f 29 5 30
f 29 18 25
f 29 16 18
f 29 43 16
f 29 30 43
f 49 10 1
f 49 1 50
f 49 48 8
f 49 8 10
f 49 52 48
f 49 50 52
f 44 45 43
f 44 27 45
f 44 43 30
f 44 30 27
f 31 32 37
f 31 1 32
f 31 50 1
f 31 36 50
f 31 37 36
f 34 51 36
f 34 36 35
f 34 33 51
f 34 35 33
