# Generated convex collision mesh
v 0.28395068645477295 0.79193222522735596 0.24925966560840607
v 0.27639591693878174 0.78957289457321167 0.26489409804344177
v 0.34341922402381897 0.77945297956466675 0.31289225816726685
v 0.12943273782730103 0.66490918397903442 0.68546819686889648
v 0.088633172214031219 0.63361644744873047 0.70349335670471191
v -0.48916664719581604 0.062332317233085632 0.45068508386611938
v 0.24912440776824951 0.75884139537811279 0.19905027747154236
v 0.28045076131820679 0.78687769174575806 0.20251348614692688
v 0.21883600950241089 0.67947036027908325 0.072332099080085754
v 0.31921097636222839 0.78926229476928711 0.22765390574932098
v 0.32389259338378906 0.60638254880905151 0.094023600220680237
v 0.34086978435516357 0.7747039794921875 0.23664951324462891
v 0.34597718715667725 0.7795296311378479 0.27156910300254822
v 0.51754409074783325 0.11671958118677139 0.15141957998275757
v 0.61060899496078491 -0.34686604142189026 0.32270148396492004
v 0.59900039434432983 -0.40387526154518127 0.28779661655426025
v 0.47154712677001953 -0.044458106160163879 0.071999594569206238
v 0.57788890600204468 -0.43739122152328491 0.26026755571365356
v 0.39389213919639587 -0.73335671424865723 0.25977647304534912
v 0.40228664875030518 -0.69103163480758667 0.40407830476760864
v 0.47023090720176697 -0.39007452130317688 0.62261027097702026
v 0.15516786277294159 0.64221256971359253 0.72108697891235352
v 0.1492590457201004 0.6277121901512146 0.72483998537063599
v 0.12788079679012299 0.65143901109695435 0.71495199203491211
v -0.42625877261161804 0.08209749311208725 0.52339076995849609
v 0.35952594876289368 -0.59204918146133423 0.59634619951248169
v 0.34336119890213013 -0.64548581838607788 0.57302820682525635
v 0.25423789024353027 -0.70328307151794434 0.47958427667617798
v 0.32388770580291748 -0.74091964960098267 0.32430261373519897
v 0.37934955954551697 -0.73856276273727417 0.23538389801979065
v 0.22803568840026855 -0.75268471240997314 0.099282130599021912
v 0.13220986723899841 -0.72685611248016357 0.07771618664264679
v -0.053363017737865448 0.11866960674524307 0
v -0.42560276389122009 -0.14382034540176392 0.044711828231811523
v 0.055611751973628998 -0.77065455913543701 0.13999395072460175
v 0.13099774718284607 -0.75133794546127319 0.094856232404708862
v 0.12723183631896973 -0.79193222522735596 0.16237139701843262
v 0.061097867786884308 -0.784706711769104 0.16598045825958252
v -0.14831972122192383 -0.60919797420501709 0.26587551832199097
v 0.23460599780082703 -0.65403258800506592 0.55180948972702026
v -0.61060893535614014 -0.070765301585197449 0.27869313955307007
v -0.59771060943603516 -0.10021443665027618 0.14742442965507507
v -0.58541810512542725 -0.11650112271308899 0.12732337415218353
v -0.068615339696407318 0.15074616670608521 0.0043617188930511475
f 1 2 3
f 3 2 4
f 4 2 5
f 5 2 6
f 6 2 7
f 2 8 7
f 7 8 9
f 8 10 9
f 9 10 11
f 11 10 12
f 10 13 12
f 12 13 14
f 14 13 3
f 3 13 10
f 3 10 1
f 1 10 8
f 1 8 2
f 15 14 3
f 15 16 14
f 14 16 17
f 17 16 18
f 18 16 19
f 19 16 20
f 20 16 21
f 21 16 15
f 3 21 15
f 3 22 21
f 21 22 23
f 23 22 24
f 24 22 4
f 4 22 3
f 5 24 4
f 23 24 5
f 5 25 23
f 25 26 23
f 26 21 23
f 26 27 21
f 27 20 21
f 28 20 27
f 29 20 28
f 19 20 29
f 29 30 19
f 30 18 19
f 31 18 30
f 17 18 31
f 31 32 17
f 17 32 33
f 33 32 34
f 34 32 35
f 35 32 36
f 36 32 31
f 37 36 31
f 35 36 37
f 37 38 35
f 35 38 39
f 39 38 40
f 40 38 28
f 28 38 37
f 29 28 37
f 37 30 29
f 31 30 37
f 28 27 40
f 40 27 26
f 25 40 26
f 41 40 25
f 41 39 40
f 42 39 41
f 43 39 42
f 35 39 43
f 43 34 35
f 9 34 43
f 9 44 34
f 34 44 33
f 33 44 9
f 9 17 33
f 9 11 17
f 11 14 17
f 11 12 14
f 43 42 9
f 9 42 7
f 7 42 41
f 6 7 41
f 25 6 41
f 5 6 25
