{"asset":{"generator":"Khronos glTF Blender I/O v3.5.30","version":"2.0"},"extensionsUsed":["KHR_materials_specular","KHR_materials_ior"],"scene":0,"scenes":[{"nodes":[0]}],"nodes":[{"mesh":0,"rotation":[0.7071067811865476,0,0,0.7071067811865476],"translation":[0,0,0.015484155155718327]}],"materials":[{"doubleSided":true,"extensions":{"KHR_materials_specular":{"specularColorFactor":[0.0474271512287485,0.0474271512287485,0.0474271512287485]},"KHR_materials_ior":{"ior":1.4500000476837158}},"name":"pine_sapling_small_bark","normalTexture":{"index":0},"pbrMetallicRoughness":{"baseColorTexture":{"index":1},"metallicFactor":0,"metallicRoughnessTexture":{"index":2}}},{"alphaCutoff":0.5,"alphaMode":"OPAQUE","doubleSided":true,"extensions":{"KHR_materials_specular":{"specularColorFactor":[1,1,1]},"KHR_materials_ior":{"ior":1.4500000476837158}},"name":"pine_sapling_small_twig","normalTexture":{"index":3},"pbrMetallicRoughness":{"baseColorTexture":{"index":4},"metallicFactor":0,"metallicRoughnessTexture":{"index":5}},"extras":{"rayrai":{"foliage":{"type":"leaf","twoSidedLighting":true,"transmission":0.4,"transmissionColor":[0.65,0.85,0.28]}}}}],"meshes":[{"name":"pine_sapling_small_a","primitives":[{"attributes":{"POSITION":1,"TEXCOORD_0":2,"NORMAL":3},"indices":0,"material":0},{"attributes":{"POSITION":5,"TEXCOORD_0":6,"NORMAL":7},"indices":4,"material":1}]}],"textures":[{"sampler":0,"source":0},{"sampler":0,"source":1},{"sampler":0,"source":2},{"sampler":0,"source":3},{"sampler":0,"source":4},{"sampler":0,"source":5}],"images":[{"mimeType":"image/jpeg","name":"pine_sapling_small_bark_nor_gl","uri":"textures/pine_sapling_small_bark_nor_gl_1k.jpg"},{"mimeType":"image/jpeg","name":"pine_sapling_small_bark_diff","uri":"textures/pine_sapling_small_bark_diff_1k.jpg"},{"mimeType":"image/jpeg","name":"pine_sapling_small_bark_rough","uri":"textures/pine_sapling_small_bark_arm_1k.jpg"},{"mimeType":"image/jpeg","name":"pine_sapling_small_twig_nor_gl","uri":"textures/pine_sapling_small_twig_nor_gl_1k.jpg"},{"mimeType":"image/jpeg","name":"pine_sapling_small_twig_diff","uri":"textures/pine_sapling_small_twig_diff_1k.jpg"},{"mimeType":"image/jpeg","name":"pine_sapling_small_twig_rough","uri":"textures/pine_sapling_small_twig_arm_1k.jpg"}],"accessors":[{"bufferView":0,"componentType":5123,"count":1620,"type":"SCALAR"},{"bufferView":1,"componentType":5126,"count":351,"max":[0.29548653960227966,1.149692177772522,0.22946305572986603],"min":[-0.25610455870628357,-0.015484155155718327,-0.3067292869091034],"type":"VEC3"},{"bufferView":2,"componentType":5126,"count":351,"type":"VEC2"},{"bufferView":3,"componentType":5126,"count":351,"type":"VEC3"},{"bufferView":4,"componentType":5125,"count":425898,"type":"SCALAR"},{"bufferView":5,"componentType":5126,"count":145144,"max":[0.4273671805858612,1.283473253250122,0.3560454249382019],"min":[-0.36030644178390503,0.22144107520580292,-0.3713758885860443],"type":"VEC3"},{"bufferView":6,"componentType":5126,"count":145144,"type":"VEC2"},{"bufferView":7,"componentType":5126,"count":145144,"type":"VEC3"}],"bufferViews":[{"buffer":0,"byteLength":3240,"byteOffset":0,"target":34963},{"buffer":0,"byteLength":4212,"byteOffset":3240,"target":34962},{"buffer":0,"byteLength":2808,"byteOffset":7452,"target":34962},{"buffer":0,"byteLength":4212,"byteOffset":10260,"target":34962},{"buffer":0,"byteLength":1703592,"byteOffset":14472,"target":34963},{"buffer":0,"byteLength":1741728,"byteOffset":1718064,"target":34962},{"buffer":0,"byteLength":1161152,"byteOffset":3459792,"target":34962},{"buffer":0,"byteLength":1741728,"byteOffset":4620944,"target":34962}],"samplers":[{"magFilter":9729,"minFilter":9987}],"buffers":[{"uri":"mesh.bin","byteLength":6362672}]}