{"asset":{"generator":"Khronos glTF Blender I/O v4.0.44","version":"2.0"},"scene":0,"scenes":[{"nodes":[0]}],"nodes":[{"mesh":0,"rotation":[0.7071067811865476,0,0,0.7071067811865476],"translation":[0,0,0.0015644739614799619]}],"materials":[{"alphaCutoff":0.5,"alphaMode":"MASK","doubleSided":true,"name":"nettle_plant","normalTexture":{"index":0},"pbrMetallicRoughness":{"baseColorTexture":{"index":1},"metallicFactor":0,"metallicRoughnessTexture":{"index":2}}}],"meshes":[{"name":"Plane.096","primitives":[{"attributes":{"POSITION":1,"NORMAL":2,"TEXCOORD_0":3},"indices":0,"material":0}]}],"textures":[{"sampler":0,"source":0},{"sampler":0,"source":1},{"sampler":0,"source":2}],"images":[{"mimeType":"image/jpeg","name":"nettle_plant_nor_gl","uri":"textures/nettle_plant_nor_gl_1k.jpg"},{"mimeType":"image/jpeg","name":"nettle_plant_diff-nettle_plant_alpha","uri":"textures/nettle_plant_diff_1k.jpg"},{"mimeType":"image/jpeg","name":"nettle_plant_rough","uri":"textures/nettle_plant_arm_1k.jpg"}],"accessors":[{"bufferView":0,"componentType":5123,"count":17688,"type":"SCALAR"},{"bufferView":1,"componentType":5126,"count":4585,"max":[0.048856571316719055,0.12992630898952484,0.04249810427427292],"min":[-0.0284300297498703,-0.0015644739614799619,-0.04656519740819931],"type":"VEC3"},{"bufferView":2,"componentType":5126,"count":4585,"type":"VEC3"},{"bufferView":3,"componentType":5126,"count":4585,"type":"VEC2"}],"bufferViews":[{"buffer":0,"byteLength":35376,"byteOffset":0,"target":34963},{"buffer":0,"byteLength":55020,"byteOffset":35376,"target":34962},{"buffer":0,"byteLength":55020,"byteOffset":90396,"target":34962},{"buffer":0,"byteLength":36680,"byteOffset":145416,"target":34962}],"samplers":[{"magFilter":9729,"minFilter":9987}],"buffers":[{"uri":"mesh.bin","byteLength":182096}]}