{"asset":{"generator":"Khronos glTF Blender I/O v4.0.44","version":"2.0"},"scene":0,"scenes":[{"nodes":[0]}],"nodes":[{"mesh":0,"rotation":[0.7071067811865476,0,0,0.7071067811865476],"translation":[0,0,0.002436659298837185]}],"materials":[{"alphaCutoff":0.5,"alphaMode":"MASK","doubleSided":true,"name":"dandelion_01","normalTexture":{"index":0},"pbrMetallicRoughness":{"baseColorTexture":{"index":1},"metallicFactor":0,"metallicRoughnessTexture":{"index":2}}}],"meshes":[{"name":"Plane.023","primitives":[{"attributes":{"POSITION":1,"NORMAL":2,"TEXCOORD_0":3},"indices":0,"material":0}]}],"textures":[{"sampler":0,"source":0},{"sampler":0,"source":1},{"sampler":0,"source":2}],"images":[{"mimeType":"image/jpeg","name":"dandelion_01_nor_gl","uri":"textures/dandelion_01_nor_gl_1k.jpg"},{"mimeType":"image/jpeg","name":"dandelion_01_diff-dandelion_01_alpha","uri":"textures/dandelion_01_diff_1k.jpg"},{"mimeType":"image/jpeg","name":"dandelion_01_rough","uri":"textures/dandelion_01_arm_1k.jpg"}],"accessors":[{"bufferView":0,"componentType":5123,"count":70626,"type":"SCALAR"},{"bufferView":1,"componentType":5126,"count":18354,"max":[0.09414416551589966,0.16179513931274414,0.12093203514814377],"min":[-0.12620310485363007,-0.002436659298837185,-0.13672634959220886],"type":"VEC3"},{"bufferView":2,"componentType":5126,"count":18354,"type":"VEC3"},{"bufferView":3,"componentType":5126,"count":18354,"type":"VEC2"}],"bufferViews":[{"buffer":0,"byteLength":141252,"byteOffset":0,"target":34963},{"buffer":0,"byteLength":220248,"byteOffset":141252,"target":34962},{"buffer":0,"byteLength":220248,"byteOffset":361500,"target":34962},{"buffer":0,"byteLength":146832,"byteOffset":581748,"target":34962}],"samplers":[{"magFilter":9729,"minFilter":9987}],"buffers":[{"uri":"mesh.bin","byteLength":728580}]}