# Generated convex collision proxy; local Z-up metres
v -0.550243808 0.395475349 0.00962316668
v 0.342239319 -0.701023535 0.0335454123
v -0.333583628 0.762451507 0.201491163
v -0.329511485 0.766167338 0.171213678
v -0.316958266 0.753617037 0.206640852
v 0.367044524 -0.757970183 0.0648274685
v 0.217903418 -0.764239752 0.147165058
v -0.610941363 0.169232165 0.198527183
v -0.61035533 0.144316958 0.181112093
v -0.177921387 0.151451396 0.599879307
v -0.14684827 0.198441827 0.596002348
v -0.105033335 0.363896282 0.559325834
v -0.614684904 0.297418746 0.0319970738
v -0.61442498 0.288928688 0.0263992869
v 0.356504285 -0.748818501 0.0441319468
v -0.299922817 0.050684159 0.570818108
v -0.358890237 0.757044498 0.130215202
v -0.349922122 0.769866623 0.143677659
v -0.357304995 0.72280451 0.0856250586
v 0.537088208 -0.377813096 0.0453661184
v 0.0967888857 -0.468716774 0.440033037
v 0.229928997 0.0432434127 0.497152402
v 0.00251593497 -0.418787281 0.461334453
v -0.293639223 -0.00702580459 0.577363864
v 0.374012579 -0.36649929 0.380465432
v 0.0689073037 0.232874633 0.521272919
v -0.62425081 0.237014604 0.0641416193
v -0.608815052 0.226328055 0.0272870773
v -0.609131981 0.215560319 0.0359728431
v -0.177073631 0.183754576 0.598155292
v -0.350087358 0.627782025 0.031642717
v -0.372438528 0.768150285 0.17153757
v -0.359767927 0.767747848 0.185235752
v -0.356236003 0.775694145 0.162188653
v -0.133925437 0.404929852 0.540384219
v -0.221678705 0.66590852 0.310751801
v 0.614621382 -0.540283511 0.112752524
v 0.213221187 -0.770964401 0.058554103
v 0.211913747 -0.775694145 0.0778913843
v -0.412075977 0.533911604 0.00375813177
v 0.616407927 -0.461769516 0.0873387042
v 0.610082316 -0.457917121 0.129270703
v 0.627157403 -0.492158356 0.0802607047
v 0.631109019 -0.534857972 0.0827840557
v 0.582543574 -0.704552087 0.0810738101
v 0.584349839 -0.700628521 0.056738474
v 0.589702619 -0.636034202 0.0416312619
v 0.600006138 -0.688795207 0.0606686276
v 0.628895726 -0.608036017 0.0606845364
v 0.62816667 -0.632720185 0.061699583
v -0.631109019 0.216722866 0.112500887
v -0.294669286 0.0234570071 0.58159518
v -0.417322396 0.177658176 0
f 16 33 8
f 21 7 45
f 21 45 25
f 31 20 40
f 32 33 34
f 32 51 8
f 32 8 33
f 9 8 51
f 9 24 8
f 52 24 10
f 52 8 24
f 52 16 8
f 37 25 45
f 35 33 16
f 22 10 21
f 22 21 25
f 23 7 21
f 23 9 7
f 23 24 9
f 23 10 24
f 23 21 10
f 19 31 40
f 19 20 31
f 30 52 10
f 30 16 52
f 30 35 16
f 38 53 2
f 36 26 22
f 42 25 37
f 42 22 25
f 42 37 44
f 17 32 34
f 12 35 30
f 12 26 36
f 12 36 35
f 12 22 26
f 1 40 53
f 1 19 40
f 1 32 17
f 1 17 19
f 47 2 53
f 47 40 20
f 47 53 40
f 39 7 9
f 39 9 38
f 6 39 38
f 6 46 45
f 6 45 7
f 6 7 39
f 28 53 38
f 28 1 53
f 3 33 35
f 3 35 36
f 3 36 5
f 3 34 33
f 43 42 44
f 41 36 22
f 41 22 42
f 41 43 20
f 41 42 43
f 18 17 34
f 18 20 19
f 18 19 17
f 11 22 12
f 11 12 30
f 11 10 22
f 11 30 10
f 50 44 37
f 50 37 45
f 15 46 6
f 15 2 47
f 15 47 46
f 15 38 2
f 15 6 38
f 14 28 27
f 14 1 28
f 29 38 9
f 29 28 38
f 29 9 51
f 29 51 27
f 29 27 28
f 4 5 36
f 4 36 41
f 4 41 20
f 4 20 18
f 4 18 34
f 4 34 3
f 4 3 5
f 48 46 47
f 48 47 50
f 48 45 46
f 48 50 45
f 49 47 20
f 49 50 47
f 49 20 43
f 49 43 44
f 49 44 50
f 13 32 1
f 13 1 14
f 13 51 32
f 13 27 51
f 13 14 27
