# Generated convex collision proxy; local Z-up metres
v 0.0624327906 -0.749806507 0.256622593
v -0.360243236 0.750236272 0.201785496
v -0.366214437 0.73447468 0.182144285
v -0.391612968 0.725213506 0.189946556
v -0.398617786 0.709057461 0.171556794
v 0.216253563 0.718975427 0.466915515
v 0.186280229 -0.298482359 0.728294934
v 0.10644646 0.707228277 0.591155077
v -0.47490278 0.505528646 0.227630652
v -0.425159409 -0.372654046 0.0410722248
v 0.266232965 0.624126553 0.400552687
v 0.41748424 0.036276272 0.258492395
v -0.0344639188 -0.674280971 0.280388123
v 0.519760475 -0.808016104 0.182698544
v -0.55328929 -0.0953217992 0.143843972
v 0.361250178 -0.7400305 0.479335507
v 0.530805734 -0.800226212 0.19696654
v 0.443742272 -0.832989173 0.218526705
v 0.552477806 -0.613067382 0.27011563
v -0.209821794 0.81478853 0.393543138
v -0.252566846 0.791324061 0.402116002
v -0.549207051 -0.139232766 0.129477303
v -0.0643969471 0.55527912 0.700992084
v -0.112477675 0.832989173 0.421255636
v -0.375658069 0.73738765 0.245619794
v 0.504671886 -0.680061342 0.108170944
v 0.517477414 -0.766374101 0.148107976
v 0.365924596 -0.760949864 0.452061175
v -0.39792742 -0.442719501 0.10949147
v -0.513889376 -0.18634042 0.00697790628
v 0.228061714 -0.542663066 0.660722058
v 0.20941533 -0.558172577 0.653464598
v -0.508959752 -0.226675943 0.0170009551
v 0.0249726122 0.731383908 0.625164504
v -0.543485574 -0.116484402 0.255412485
v -0.365215867 0.701910331 0.160093295
v 0.250264478 0.674404772 0.448053254
v 0.55328929 -0.718770389 0.225038133
v 0.154990526 0.763068859 0.512255664
v 0.256300821 -0.0446891053 0
v 0.073964181 0.513739931 0.197662801
v -0.0527805322 0.728703447 0.638373415
v -0.100623717 0.679363048 0.627716419
v 0.0265673268 0.824896442 0.446733067
v 0.0554659748 0.812994895 0.422087546
v -0.532501155 -0.234070379 0.228386426
v -0.485371069 -0.279214997 0.256568282
v 0.332654584 -0.556672526 0.630951212
v 0.351363722 -0.555040185 0.610996963
v 0.380194243 -0.824312633 0.220273053
v 0.116132189 0.785637484 0.517204507
v 0.0340555682 0.792047823 0.587506937
f 41 40 36
f 41 36 3
f 19 38 26
f 46 15 22
f 35 7 23
f 35 47 7
f 35 46 47
f 35 15 46
f 12 26 40
f 12 37 19
f 12 19 26
f 44 24 52
f 34 42 23
f 34 52 42
f 20 52 24
f 20 21 42
f 20 42 52
f 49 37 7
f 49 19 37
f 49 16 38
f 49 38 19
f 48 49 7
f 48 16 49
f 32 13 1
f 32 16 48
f 32 7 47
f 32 47 13
f 9 35 23
f 9 15 35
f 28 32 1
f 28 16 32
f 17 28 18
f 17 38 16
f 17 16 28
f 11 12 40
f 11 37 12
f 11 40 41
f 33 46 22
f 27 10 26
f 27 26 38
f 27 38 17
f 29 47 46
f 29 13 47
f 29 46 33
f 29 33 10
f 29 1 13
f 29 10 1
f 51 44 52
f 45 41 3
f 45 24 44
f 45 11 41
f 45 44 51
f 43 23 42
f 43 42 21
f 43 9 23
f 43 21 9
f 2 21 20
f 2 20 24
f 2 24 45
f 2 45 3
f 31 48 7
f 31 7 32
f 31 32 48
f 50 28 1
f 50 18 28
f 50 1 10
f 50 10 27
f 30 22 15
f 30 33 22
f 30 15 9
f 30 36 40
f 30 10 33
f 30 40 26
f 30 26 10
f 14 17 18
f 14 27 17
f 14 18 50
f 14 50 27
f 8 52 34
f 8 7 37
f 8 23 7
f 8 34 23
f 5 3 36
f 5 36 30
f 5 30 9
f 39 51 52
f 39 52 8
f 39 45 51
f 4 2 3
f 4 3 5
f 4 5 9
f 6 8 37
f 6 39 8
f 6 45 39
f 6 37 11
f 6 11 45
f 25 21 2
f 25 2 4
f 25 9 21
f 25 4 9
