# Generated convex collision proxy; local Z-up metres
v -0.0316794 -0.855204051 0.444874148
v -0.0179787316 -0.853146974 0.432449233
v -0.0854831434 -0.837964804 0.476843953
v -0.158437254 -0.828867171 0.421747451
v -0.0371279492 -0.833519783 0.384271942
v -0.0658318013 -0.809130779 0.504789988
v -0.226925264 -0.776142822 0.490828767
v 0.0500515279 -0.816925273 0.48683279
v 0.0880400659 -0.796644642 0.482201002
v 0.092738363 -0.783362615 0.335282921
v 0.101446491 -0.772163776 0.492450297
v -0.340092896 -0.688518066 0.482728717
v -0.348656321 -0.659400089 0.443088017
v -0.119228548 -0.692664517 0.207432977
v 0.156086477 -0.682323852 0.291710952
v -0.397812489 -0.569808759 0.539854655
v -0.402412064 -0.544001838 0.544461116
v -0.422939724 -0.522635723 0.507927688
v 0.144727236 -0.586369203 0.138602599
v 0.175289392 -0.548277278 0.128511479
v -0.185161055 -0.338996515 0.0252899489
v -0.418111172 0.221729289 0.108064191
v 0.182232221 0.158498569 0
v 0.136148478 0.193531211 0.68757714
v 0.157841517 0.207584327 0.685413479
v 0.319241373 0.267107618 0.0110937523
v 0.346345892 0.345830603 0.589031018
v -0.518291454 0.494380885 0.319228482
v -0.511081112 0.513209533 0.28099318
v -0.47690248 0.541811931 0.240561728
v 0.472899534 0.45495308 0.0930968368
v 0.457624482 0.475359265 0.0778142884
v -0.459653136 0.627658597 0.394496708
v -0.443683167 0.672196626 0.348544927
v -0.0519680277 0.607263802 0.619017453
v -0.38762495 0.69152552 0.255614884
v 0.244644204 0.638118595 0.611381049
v -0.361875282 0.738306764 0.393636102
v 0.468597644 0.639511965 0.42818718
v -0.0944806703 0.73086782 0.571963172
v 0.469593544 0.665617013 0.41465152
v 0.517944234 0.666976793 0.250731434
v 0.328328807 0.69850828 0.136347417
v 0.518291454 0.673912568 0.236559257
v 0.516235737 0.674351549 0.199065108
v 0.509577079 0.682469635 0.19584351
v 0.489747532 0.7104854 0.220463062
v 0.229902766 0.776483345 0.467715602
v -0.0700547865 0.850797923 0.152882957
v -0.0719987353 0.853033829 0.176114895
v -0.0720226911 0.854640162 0.162468563
v -0.0575282183 0.855204051 0.165233612
f 6 24 17
f 6 11 24
f 22 21 13
f 35 37 40
f 35 17 24
f 48 40 37
f 32 49 43
f 14 13 21
f 16 6 17
f 16 7 6
f 16 12 7
f 8 11 6
f 3 6 7
f 3 1 8
f 3 8 6
f 30 49 22
f 39 37 27
f 39 27 11
f 25 27 37
f 25 35 24
f 25 37 35
f 25 24 11
f 25 11 27
f 50 40 48
f 50 38 40
f 47 43 49
f 23 20 21
f 23 21 22
f 23 22 49
f 26 31 20
f 26 32 31
f 26 20 23
f 26 49 32
f 26 23 49
f 15 10 20
f 15 20 31
f 5 14 10
f 19 20 10
f 19 10 14
f 19 21 20
f 19 14 21
f 4 7 12
f 4 14 5
f 4 13 14
f 4 12 13
f 4 1 3
f 4 3 7
f 18 22 13
f 18 13 12
f 18 12 16
f 18 17 28
f 18 16 17
f 2 8 1
f 2 5 10
f 2 1 4
f 2 4 5
f 9 11 8
f 9 15 11
f 9 10 15
f 9 2 10
f 9 8 2
f 29 28 34
f 29 34 30
f 29 30 22
f 29 18 28
f 29 22 18
f 33 38 34
f 33 40 38
f 33 35 40
f 33 17 35
f 33 28 17
f 33 34 28
f 36 49 30
f 36 30 34
f 36 34 38
f 41 48 37
f 41 37 39
f 41 47 48
f 41 44 47
f 42 39 11
f 42 11 15
f 42 44 41
f 42 41 39
f 42 15 31
f 51 38 50
f 51 49 36
f 51 36 38
f 46 32 43
f 46 43 47
f 52 48 47
f 52 50 48
f 52 51 50
f 52 47 49
f 52 49 51
f 45 31 32
f 45 32 46
f 45 44 42
f 45 42 31
f 45 47 44
f 45 46 47
